<!DOCTYPE svg PUBLIC "-//W3C//DTD SVG 1.1//EN" "http://www.w3.org/Graphics/SVG/1.1/DTD/svg11.dtd">
<!-- Uploaded to: SVG Repo, www.svgrepo.com, Transformed by: SVG Repo Mixer Tools -->
<svg width="800px" height="800px" viewBox="-2.4 -2.4 28.80 28.80" fill="none" xmlns="http://www.w3.org/2000/svg" stroke="#000000" stroke-width="1.2">
<g id="SVGRepo_bgCarrier" stroke-width="0">
<path transform="translate(-2.4, -2.4), scale(1.7999999999999998)" fill="#ffc894" d="M9.166.33a2.25 2.25 0 00-2.332 0l-5.25 3.182A2.25 2.25 0 00.5 5.436v5.128a2.25 2.25 0 001.084 1.924l5.25 3.182a2.25 2.25 0 002.332 0l5.25-3.182a2.25 2.25 0 001.084-1.924V5.436a2.25 2.25 0 00-1.084-1.924L9.166.33z" strokewidth="0"/>
</g>
<g id="SVGRepo_tracerCarrier" stroke-linecap="round" stroke-linejoin="round"/>
<g id="SVGRepo_iconCarrier">
<path d="M9 11.2857L10.8 13L15 9M12 6.59097L11.8456 6.42726C9.86801 4.33053 6.59738 4.57698 4.91934 6.94915C3.42999 9.05459 3.78668 12.0335 5.725 13.6776L12 19L18.275 13.6776C20.2133 12.0335 20.57 9.05459 19.0807 6.94915C17.4026 4.57697 14.132 4.33053 12.1544 6.42726L12 6.59097Z" stroke="#D64045" stroke-linecap="round" stroke-linejoin="round"/>
</g>
</svg>